<svg width="160" height="36" fill="none" xmlns="http://www.w3.org/2000/svg"><path d="M43.325 10.086c1.306-.938 2.948-1.407 4.992-1.407 2.513 0 4.658.502 6.467 1.474v5.026c-1.81-1.173-3.753-1.709-5.864-1.675-1.038 0-1.575.268-1.575.77 0 .235.168.436.47.637.301.201.737.369 1.24.503.502.134 1.038.301 1.675.502.603.168 1.24.402 1.843.704a7.669 7.669 0 011.675 1.005c.503.402.905.905 1.206 1.575.335.637.47 1.407.47 2.212 0 3.82-2.48 5.73-7.406 5.73-2.68 0-5.026-.57-7.003-1.676v-5.26c2.111 1.373 4.256 2.077 6.434 2.077.737 0 1.273-.067 1.54-.201a.683.683 0 00.437-.67c0-.269-.202-.503-.637-.738a5.742 5.742 0 00-1.575-.57 16.922 16.922 0 01-2.077-.703c-.738-.302-1.441-.637-2.078-1.039a4.474 4.474 0 01-1.575-1.675c-.435-.737-.636-1.575-.636-2.547.033-1.776.67-3.15 1.977-4.054zm27.811 4.524v12.096h-4.658v-1.207c-1.072 1.073-2.312 1.609-3.719 1.609-1.541 0-2.714-.47-3.485-1.374-.77-.905-1.172-2.01-1.172-3.317v-7.808h5.327v6.903c0 .77.402 1.173 1.173 1.173a1.6 1.6 0 001.273-.604V14.61h5.26zm11.193-.403c1.809 0 3.183.637 4.12 1.876.94 1.24 1.408 2.782 1.408 4.59 0 1.81-.469 3.352-1.407 4.592-.938 1.24-2.312 1.876-4.121 1.876-1.374 0-2.48-.369-3.318-1.14v5.395h-5.327V14.61h4.657v1.474c1.005-1.24 2.346-1.876 3.988-1.876zm-.403 4.926c-.301-.436-.77-.637-1.373-.637-.704 0-1.24.268-1.575.871v2.68c.134.235.335.436.603.604.301.167.603.268.972.268.603 0 1.072-.201 1.373-.637.302-.435.47-.938.47-1.541 0-.67-.168-1.206-.47-1.608zm7.74-1.508c.436-.872.972-1.542 1.642-2.011.67-.47 1.374-.838 2.078-1.039a7.026 7.026 0 012.178-.335c1.038 0 1.977.168 2.78.47.805.3 1.442.703 1.911 1.24a5.516 5.516 0 011.105 1.742c.302.67.436 1.373.402 2.077 0 .737-.067 1.44-.201 2.144h-7.472c.201.503.637.872 1.273 1.14.637.268 1.374.402 2.178.402 1.307 0 2.48-.168 3.485-.47v3.586c-1.24.435-2.714.637-4.423.637-1.374 0-2.613-.201-3.72-.637a6.206 6.206 0 01-2.78-2.145c-.737-1.005-1.106-2.278-1.106-3.752.034-1.207.268-2.212.67-3.05zm7.372.636c-.235-.369-.637-.536-1.206-.536-.536 0-.939.167-1.274.47-.301.3-.469.736-.469 1.239h3.217a1.853 1.853 0 00-.268-1.173zm15.846-3.886v4.992c-.67-.234-1.407-.268-2.144-.167-.771.134-1.341.368-1.709.77v6.736h-5.328V14.609h4.658v1.408c1.038-1.307 2.513-1.877 4.523-1.642zm1.542 12.365v-3.72l6.567-8.846h-6.165V9.081h14.14v3.72l-6.567 8.845h6.869v5.093h-14.844zm18.461-10.858c1.307-1.105 2.982-1.675 4.993-1.675 2.01 0 3.685.57 4.992 1.675 1.307 1.106 1.977 2.714 1.977 4.792 0 2.077-.67 3.686-1.977 4.791-1.307 1.106-2.982 1.676-4.992 1.676-2.011 0-3.653-.57-4.993-1.675-1.307-1.106-1.977-2.715-1.977-4.792 0-2.078.67-3.686 1.977-4.792zm4.993 2.714c-1.173 0-1.776.704-1.776 2.078 0 1.374.603 2.077 1.776 2.077 1.206 0 1.776-.703 1.776-2.077.033-1.374-.57-2.078-1.776-2.078zm10.156-2.714c1.306-1.105 2.982-1.675 4.992-1.675 2.011 0 3.686.57 4.993 1.675 1.307 1.106 1.977 2.714 1.977 4.792 0 2.077-.67 3.686-1.977 4.791-1.307 1.106-2.982 1.676-4.993 1.676-2.01 0-3.652-.57-4.992-1.675-1.307-1.106-1.977-2.715-1.977-4.792 0-2.078.636-3.686 1.977-4.792zm4.959 2.714c-1.173 0-1.776.704-1.776 2.078 0 1.374.603 2.077 1.776 2.077 1.206 0 1.776-.703 1.776-2.077.033-1.374-.57-2.078-1.776-2.078zM16.653 13.973c-1.307-.403-2.446-.503-2.446-.503-.302.402-1.273.77-2.044.335-.67-.369-1.005-1.273-.704-2.312.068-.235.202-.436.336-.603.067-.067-.034-.201-.1-.168a.86.86 0 00-.437.302c-.368.402-.737 1.206-.57 2.144-1.105.47-1.943-.067-2.21-.77a1.032 1.032 0 01-.101-.436c-.067-.704.134-1.24.67-1.943a2.24 2.24 0 01.402-.402c.1-.067 0-.201-.1-.168a3.29 3.29 0 00-.604.268c-.435.302-.804.704-.971 1.374-.771-.704-.47-2.078.469-2.614.703-.402 1.374-.435 1.943-.435a9.776 9.776 0 014.29-.402c2.78.335 5.729 1.675 7.672 3.45l3.519-6.466C22.148 1.642 17.927 0 13.202 0 4.926 0 .034 4.658.034 11.057c0 4.021 2.613 7.238 4.825 8.612 2.714 1.709 5.394 1.943 7.974 2.278 1.676.201 3.318.168 4.189.201.536 0 .87.067.904.369.067.268-.2.436-.636.603-.737.268-1.877.369-2.614.436-.1 0-.2.033-.2.134 0 .067.066.167.2.2.972.202 2.547.235 3.652.202.637-.034.972.134 1.006.469.033.369-.235.503-.872.704-.703.2-2.512.469-4.054.435-.234 0-.234.235-.033.302.904.301 2.144.335 3.015.402.503.033.805.134.838.402 0 .268-.235.469-.637.603-.737.235-2.077.235-2.814.235-.436-.034-.871-.067-1.408-.134 0 0-.938-.939-2.278-1.34-.201-.068-.335-.034-.369.033-.033.1.168.2.335.301.771.536 1.207.871 1.475 1.274.435.636.1 1.172-.402 1.072-1.04-.201-2.949-1.039-4.39-1.71-1.608-.736-2.881-1.44-4.188-2.58L0 30.995c3.518 3.016 7.74 4.658 12.431 4.658 8.545 0 13.202-4.892 13.202-11.058 0-3.853-2.245-8.51-8.98-10.621z" fill="#fff"/></svg>