<svg width="50" height="35" viewBox="0 0 50 35" fill="none" xmlns="http://www.w3.org/2000/svg">
<path d="M12.9839 26.4761H4.51894C4.35473 26.4761 4.19724 26.5413 4.08113 26.6575C3.96501 26.7736 3.89978 26.9311 3.89978 27.0953C3.89978 27.2595 3.96501 27.417 4.08113 27.5331C4.19724 27.6492 4.35473 27.7144 4.51894 27.7144H12.9654C13.1296 27.7144 13.2871 27.6492 13.4032 27.5331C13.5193 27.417 13.5846 27.2595 13.5846 27.0953C13.5846 26.9311 13.5193 26.7736 13.4032 26.6575C13.2871 26.5413 13.1296 26.4761 12.9654 26.4761H12.9839Z" fill="#441B98"/>
<path d="M44.4041 15.6916V4.01993C44.4041 2.95378 43.9805 1.93129 43.2267 1.17741C42.4728 0.423527 41.4503 0 40.3841 0H4.02917C2.96217 -2.80648e-06 1.93873 0.42323 1.18338 1.17685C0.428028 1.93047 0.00244726 2.95293 0 4.01993V28.9712C0.00972804 30.0343 0.438227 31.0506 1.19253 31.7997C1.94683 32.5488 2.96609 32.9703 4.02917 32.9727H32.9727C33.059 32.9739 33.1445 32.9549 33.2222 32.9172C34.3501 33.7699 35.6415 34.3812 37.016 34.7128C38.3905 35.0445 39.8186 35.0894 41.2113 34.8448C42.6039 34.6003 43.9312 34.0715 45.1105 33.2913C46.2898 32.5112 47.2957 31.4966 48.0656 30.3106C48.8355 29.1246 49.3528 27.7927 49.5853 26.398C49.8178 25.0033 49.7604 23.5757 49.4169 22.2041C49.0734 20.8325 48.451 19.5464 47.5885 18.4259C46.7261 17.3055 45.6421 16.3747 44.4041 15.6916ZM4.02917 1.23832H40.3841C41.1194 1.23832 41.8246 1.53041 42.3445 2.05033C42.8644 2.57025 43.1565 3.27541 43.1565 4.01069V8.03062H1.23832V4.01993C1.23709 3.65352 1.30851 3.2905 1.44844 2.95186C1.58837 2.61322 1.79405 2.30568 2.05357 2.04702C2.31309 1.78836 2.62131 1.58371 2.96041 1.4449C3.29952 1.30609 3.66277 1.23588 4.02917 1.23832ZM1.25681 28.962V12.3648H43.175V15.1371C40.9991 14.2857 38.5982 14.1998 36.367 14.8935C34.1358 15.5873 32.2069 17.0195 30.8975 18.9546C29.588 20.8898 28.9758 23.2129 29.1615 25.5421C29.3471 27.8713 30.3197 30.068 31.9192 31.7713H4.02917C3.65883 31.7739 3.29174 31.7022 2.94956 31.5605C2.60739 31.4188 2.29707 31.21 2.03692 30.9464C1.77677 30.6828 1.57208 30.3698 1.43492 30.0258C1.29775 29.6818 1.23091 29.3138 1.23832 28.9435L1.25681 28.962ZM39.4785 33.8136C37.6855 33.8136 35.9327 33.2819 34.4419 32.2858C32.9511 31.2897 31.7891 29.8738 31.1029 28.2173C30.4168 26.5607 30.2373 24.7379 30.5871 22.9794C30.9369 21.2208 31.8003 19.6055 33.0681 18.3376C34.336 17.0698 35.9513 16.2063 37.7099 15.8565C39.4684 15.5067 41.2912 15.6863 42.9478 16.3724C44.6043 17.0586 46.0202 18.2206 47.0163 19.7114C48.0124 21.2022 48.5441 22.955 48.5441 24.748C48.5368 27.1516 47.5762 29.4541 45.8731 31.1503C44.17 32.8464 41.8636 33.7976 39.46 33.7952L39.4785 33.8136Z" fill="#441B98"/>
<path d="M43.1935 21.8555L38.2125 27.0213L35.9391 24.7572C35.7836 24.6048 35.5746 24.5195 35.3569 24.5195C35.1392 24.5195 34.9302 24.6048 34.7747 24.7572C34.6982 24.8336 34.6374 24.9244 34.596 25.0243C34.5545 25.1242 34.5332 25.2313 34.5332 25.3394C34.5332 25.4476 34.5545 25.5547 34.596 25.6546C34.6374 25.7545 34.6982 25.8452 34.7747 25.9216L37.6487 28.8141C37.8058 28.9632 38.0144 29.046 38.2309 29.0452C38.4503 29.042 38.6596 28.9523 38.8131 28.7956L44.3579 23.0199C44.5086 22.8618 44.5904 22.6503 44.5852 22.4319C44.58 22.2136 44.4882 22.0062 44.3301 21.8555C44.1721 21.7048 43.9606 21.623 43.7422 21.6282C43.5238 21.6334 43.3165 21.7251 43.1658 21.8832L43.1935 21.8555Z" fill="#441B98"/>
</svg>
