<svg width="50" height="50" viewBox="0 0 50 50" fill="none" xmlns="http://www.w3.org/2000/svg">
<path d="M49.8611 25.5926L46.5741 21.4444L41.5278 11.7037C41.4762 11.6006 41.3968 11.5139 41.2987 11.4534C41.2006 11.3929 41.0875 11.3609 40.9722 11.3611H33.5648V8.5185C33.5648 8.43703 33.5488 8.35636 33.5176 8.2811C33.4864 8.20583 33.4407 8.13744 33.3831 8.07983C33.3255 8.02223 33.2571 7.97653 33.1819 7.94536C33.1066 7.91418 33.0259 7.89813 32.9445 7.89813H4.67594C4.51141 7.89813 4.35362 7.96349 4.23727 8.07983C4.12093 8.19618 4.05557 8.35397 4.05557 8.5185C4.05555 8.6839 4.12062 8.84266 4.2367 8.96048C4.35278 9.07829 4.51056 9.1457 4.67594 9.14813H32.3241V21.7407C32.3241 21.9077 32.3904 22.0679 32.5085 22.1859C32.6266 22.304 32.7867 22.3704 32.9537 22.3704H45.75L48.75 26.1667V35.5463H44.0278C43.8579 34.1346 43.1766 32.8341 42.1129 31.8907C41.0491 30.9473 39.6765 30.4263 38.2546 30.4263C36.8328 30.4263 35.4602 30.9473 34.3964 31.8907C33.3327 32.8341 32.6514 34.1346 32.4815 35.5463H21.9908C21.8209 34.1346 21.1396 32.8341 20.0758 31.8907C19.012 30.9473 17.6395 30.4263 16.2176 30.4263C14.7958 30.4263 13.4232 30.9473 12.3594 31.8907C11.2956 32.8341 10.6144 34.1346 10.4445 35.5463H4.67594C4.52328 35.5649 4.38272 35.6387 4.28076 35.7539C4.17881 35.869 4.12253 36.0175 4.12253 36.1713C4.12253 36.3251 4.17881 36.4735 4.28076 36.5887C4.38272 36.7038 4.52328 36.7777 4.67594 36.7963H10.4167C10.5578 38.2357 11.2294 39.5711 12.3008 40.5426C13.3722 41.5141 14.7667 42.0522 16.213 42.0522C17.6593 42.0522 19.0538 41.5141 20.1252 40.5426C21.1966 39.5711 21.8682 38.2357 22.0093 36.7963H32.4537C32.5948 38.2357 33.2664 39.5711 34.3378 40.5426C35.4092 41.5141 36.8037 42.0522 38.25 42.0522C39.6963 42.0522 41.0908 41.5141 42.1622 40.5426C43.2336 39.5711 43.9052 38.2357 44.0463 36.7963H49.3797C49.4619 36.7963 49.5433 36.7799 49.6192 36.7482C49.6951 36.7164 49.7639 36.6699 49.8216 36.6113C49.8793 36.5527 49.9249 36.4832 49.9555 36.4069C49.9861 36.3306 50.0012 36.2489 50 36.1667V25.9815C50.0002 25.8396 49.9511 25.7022 49.8611 25.5926ZM33.5741 12.6296H40.5926L45.0278 21.1759H33.5741V12.6296ZM16.213 40.8518C15.3083 40.8518 14.424 40.5836 13.6718 40.081C12.9196 39.5784 12.3333 38.864 11.9871 38.0282C11.6409 37.1924 11.5503 36.2727 11.7268 35.3854C11.9033 34.4981 12.3389 33.6831 12.9786 33.0434C13.6183 32.4037 14.4333 31.9681 15.3206 31.7916C16.2079 31.6151 17.1276 31.7057 17.9634 32.0519C18.7992 32.3981 19.5136 32.9843 20.0162 33.7365C20.5188 34.4887 20.7871 35.3731 20.7871 36.2778C20.7726 37.4864 20.2861 38.6415 19.4314 39.4962C18.5767 40.3509 17.4216 40.8374 16.213 40.8518ZM38.25 40.8518C37.3454 40.8518 36.461 40.5836 35.7088 40.081C34.9566 39.5784 34.3703 38.864 34.0241 38.0282C33.6779 37.1924 33.5873 36.2727 33.7638 35.3854C33.9403 34.4981 34.376 33.6831 35.0157 33.0434C35.6554 32.4037 36.4704 31.9681 37.3577 31.7916C38.2449 31.6151 39.1646 31.7057 40.0004 32.0519C40.8362 32.3981 41.5506 32.9843 42.0532 33.7365C42.5558 34.4887 42.8241 35.3731 42.8241 36.2778C42.8097 37.4864 42.3231 38.6415 41.4684 39.4962C40.6137 40.3509 39.4587 40.8374 38.25 40.8518Z" fill="#441B98"/>
<path d="M3.53703 15.8982H17.6759C17.8404 15.8982 17.9982 15.8328 18.1146 15.7164C18.2309 15.6001 18.2963 15.4423 18.2963 15.2778C18.2963 15.1132 18.2309 14.9555 18.1146 14.8391C17.9982 14.7228 17.8404 14.6574 17.6759 14.6574H3.53703C3.37249 14.6574 3.2147 14.7228 3.09836 14.8391C2.98202 14.9555 2.91666 15.1132 2.91666 15.2778C2.91666 15.4423 2.98202 15.6001 3.09836 15.7164C3.2147 15.8328 3.37249 15.8982 3.53703 15.8982Z" fill="#441B98"/>
<path d="M16.213 21.7407C16.213 21.5762 16.1476 21.4184 16.0313 21.3021C15.9149 21.1857 15.7571 21.1204 15.5926 21.1204H0.62037C0.455838 21.1204 0.298044 21.1857 0.181702 21.3021C0.0653603 21.4184 0 21.5762 0 21.7407C0 21.9053 0.0653603 22.0631 0.181702 22.1794C0.298044 22.2957 0.455838 22.3611 0.62037 22.3611H15.5926C15.7571 22.3611 15.9149 22.2957 16.0313 22.1794C16.1476 22.0631 16.213 21.9053 16.213 21.7407Z" fill="#441B98"/>
<path d="M12.4722 28.1667C12.4722 28.0021 12.4069 27.8443 12.2905 27.728C12.1742 27.6117 12.0164 27.5463 11.8519 27.5463H3.51853C3.354 27.5463 3.19621 27.6117 3.07986 27.728C2.96352 27.8443 2.89816 28.0021 2.89816 28.1667C2.89816 28.3312 2.96352 28.489 3.07986 28.6053C3.19621 28.7217 3.354 28.787 3.51853 28.787H11.8519C12.0164 28.787 12.1742 28.7217 12.2905 28.6053C12.4069 28.489 12.4722 28.3312 12.4722 28.1667Z" fill="#441B98"/>
</svg>
