<svg width="47" height="40" viewBox="0 0 47 40" fill="none" xmlns="http://www.w3.org/2000/svg">
<path d="M42.3832 34.9479H39.9178V21.9264C41.5151 20.5635 46.7584 15.5893 46.7584 8.90492C46.8172 7.8385 46.6582 6.77127 46.2911 5.76832C45.9239 4.76538 45.3563 3.84771 44.6229 3.07129C43.1221 1.69634 41.1716 0.915516 39.1365 0.875H39.0497C37.0118 0.91421 35.0582 1.69506 33.5547 3.07129H6.1401C5.81875 3.07122 5.50062 3.13532 5.20438 3.25985C4.90813 3.38437 4.63974 3.56681 4.41495 3.79645C4.19016 4.02609 4.0135 4.29832 3.89532 4.59715C3.77715 4.89599 3.71985 5.21541 3.72679 5.53669V7.07323L0.436695 14.643C0.396109 14.7254 0.375 14.816 0.375 14.9078C0.375 14.9996 0.396109 15.0902 0.436695 15.1726C0.488758 15.2465 0.557588 15.3071 0.637556 15.3494C0.717523 15.3916 0.806356 15.4143 0.896788 15.4157C0.892633 15.4677 0.892633 15.5199 0.896788 15.5719C0.900865 16.72 1.35168 17.8215 2.15375 18.643C2.95583 19.4645 4.04617 19.9416 5.19388 19.9732V34.9479H2.65035C2.08237 34.9502 1.53831 35.1768 1.13669 35.5784C0.735069 35.9801 0.508429 36.5241 0.506143 37.0921V37.3352C0.506139 37.9046 0.731768 38.4509 1.13364 38.8544C1.5355 39.2579 2.08087 39.4857 2.65035 39.488H42.3832C42.9527 39.4857 43.4981 39.2579 43.8999 38.8544C44.3018 38.4509 44.5274 37.9046 44.5274 37.3352V37.0921C44.5252 36.5241 44.2985 35.9801 43.8969 35.5784C43.4953 35.1768 42.9512 34.9502 42.3832 34.9479ZM39.0497 1.98617H39.1279C40.8702 2.02741 42.5398 2.6928 43.833 3.86126C44.459 4.53637 44.9418 5.33135 45.2522 6.19821C45.5625 7.06508 45.694 7.98584 45.6386 8.90492C45.6386 15.1552 40.4908 19.9732 39.1192 21.1538C37.7302 19.9819 32.5303 15.1639 32.5303 8.90492C32.4749 7.98584 32.6064 7.06508 32.9167 6.19821C33.2271 5.33135 33.7099 4.53637 34.336 3.86126C35.6334 2.69419 37.3052 2.02917 39.0497 1.98617ZM25.8199 7.69826V14.3132H19.2137V7.69826H25.8199ZM31.4712 7.69826C31.4287 8.09904 31.4084 8.50188 31.4105 8.90492C31.4247 10.785 31.8204 12.6426 32.5737 14.3653L26.8963 14.3219V7.69826H31.4712ZM18.1025 14.3132H10.524L11.1838 9.45182L11.4268 7.71562H18.1025V14.3132ZM17.2344 15.4157C17.2261 15.4674 17.2261 15.5202 17.2344 15.5719C17.191 16.4187 16.824 17.2164 16.2093 17.8004C15.5946 18.3844 14.7792 18.71 13.9313 18.71C13.0834 18.71 12.2679 18.3844 11.6532 17.8004C11.0385 17.2164 10.6716 16.4187 10.6282 15.5719C10.6365 15.5202 10.6365 15.4674 10.6282 15.4157H17.2344ZM25.8286 15.4157C25.8203 15.4674 25.8203 15.5202 25.8286 15.5719C25.7852 16.4187 25.4182 17.2164 24.8035 17.8004C24.1888 18.3844 23.3733 18.71 22.5255 18.71C21.6776 18.71 20.8621 18.3844 20.2474 17.8004C19.6327 17.2164 19.2658 16.4187 19.2224 15.5719C19.2306 15.5202 19.2306 15.4674 19.2224 15.4157H25.8286ZM32.973 15.4764H33.0772C33.3688 16.043 33.6904 16.5936 34.0408 17.1258C34.0053 17.1545 33.9758 17.1899 33.954 17.23C33.5883 17.8561 33.027 18.3448 32.3565 18.6207C31.686 18.8966 30.9433 18.9445 30.2429 18.7571C29.5424 18.5696 28.923 18.1572 28.4799 17.5833C28.0368 17.0093 27.7946 16.3057 27.7905 15.5806C27.7952 15.5344 27.7952 15.4879 27.7905 15.4417L32.973 15.4764ZM4.82928 5.53669C4.82582 5.36196 4.85711 5.18828 4.92134 5.02574C4.98556 4.86321 5.08143 4.71504 5.20338 4.58986C5.32533 4.46468 5.47093 4.36497 5.63174 4.29652C5.79254 4.22808 5.96534 4.19225 6.1401 4.19114H32.6345C32.1702 4.92954 31.8382 5.74329 31.6535 6.59577H4.82928V5.53669ZM4.63829 7.73298H10.307L9.64722 12.5943L9.40416 14.3305H1.79093L4.63829 7.73298ZM2.034 15.6066C2.04227 15.5549 2.04227 15.5021 2.034 15.4504H8.66627C8.658 15.5021 8.658 15.5549 8.66627 15.6066C8.62285 16.4534 8.2559 17.2511 7.64121 17.8351C7.02651 18.4191 6.21102 18.7447 5.36316 18.7447C4.51529 18.7447 3.6998 18.4191 3.08511 17.8351C2.47041 17.2511 2.10346 16.4534 2.06004 15.6066H2.034ZM6.26164 19.9471C7.08215 19.7708 7.83549 19.3645 8.43352 18.7757C9.03154 18.1869 9.44952 17.44 9.63854 16.6223C9.86271 17.5941 10.4096 18.4612 11.1901 19.0821C11.9705 19.703 12.9383 20.041 13.9356 20.041C14.9329 20.041 15.9008 19.703 16.6812 19.0821C17.4616 18.4612 18.0086 17.5941 18.2327 16.6223C18.4531 17.5962 18.998 18.4662 19.7781 19.0895C20.5582 19.7128 21.527 20.0523 22.5255 20.0523C23.524 20.0523 24.4928 19.7128 25.2728 19.0895C26.0529 18.4662 26.5979 17.5962 26.8182 16.6223C27.0223 17.4434 27.4584 18.1885 28.0743 18.7686C28.6902 19.3487 29.46 19.7394 30.2918 19.8941C31.1237 20.0487 31.9825 19.9608 32.7657 19.6408C33.549 19.3208 34.2236 18.7823 34.7092 18.0894C35.8634 19.6699 37.2239 21.0889 38.7546 22.3084V34.9479H26.497V25.0776C26.497 24.5573 26.2903 24.0583 25.9224 23.6903C25.5545 23.3224 25.0554 23.1157 24.5351 23.1157H20.4985C19.9781 23.1157 19.4791 23.3224 19.1112 23.6903C18.7433 24.0583 18.5366 24.5573 18.5366 25.0776V34.9479H6.25296L6.26164 19.9471ZM19.639 34.835V25.0776C19.639 24.8474 19.7305 24.6266 19.8933 24.4638C20.0561 24.301 20.2769 24.2095 20.5071 24.2095H24.5438C24.774 24.2095 24.9948 24.301 25.1576 24.4638C25.3204 24.6266 25.4119 24.8474 25.4119 25.0776V34.835H19.639ZM43.3902 37.3352C43.3902 37.472 43.3633 37.6074 43.3109 37.7338C43.2586 37.8602 43.1818 37.975 43.0851 38.0718C42.9884 38.1685 42.8735 38.2452 42.7472 38.2976C42.6208 38.3499 42.4853 38.3769 42.3485 38.3769H2.65035C2.37407 38.3769 2.1091 38.2671 1.91374 38.0718C1.71838 37.8764 1.60863 37.6114 1.60863 37.3352V37.0921C1.60863 36.8158 1.71838 36.5508 1.91374 36.3555C2.1091 36.1601 2.37407 36.0504 2.65035 36.0504H42.3832C42.6595 36.0504 42.9245 36.1601 43.1198 36.3555C43.3152 36.5508 43.4249 36.8158 43.4249 37.0921L43.3902 37.3352Z" fill="#441B98"/>
<path d="M39.0497 10.7453C39.6899 10.7487 40.3166 10.5618 40.8503 10.2083C41.384 9.85474 41.8006 9.35057 42.0472 8.75978C42.2938 8.169 42.3592 7.51826 42.2351 6.89022C42.1111 6.26217 41.8032 5.68517 41.3505 5.2325C40.8978 4.77983 40.3208 4.47191 39.6928 4.34786C39.0648 4.22381 38.414 4.28923 37.8232 4.53579C37.2324 4.78236 36.7283 5.19896 36.3748 5.73268C36.0212 6.26639 35.8343 6.89313 35.8378 7.5333C35.8446 8.38306 36.1852 9.19608 36.786 9.79697C37.3869 10.3979 38.2 10.7385 39.0497 10.7453ZM39.0497 5.38909C39.4704 5.38909 39.8816 5.51383 40.2313 5.74753C40.5811 5.98123 40.8537 6.3134 41.0147 6.70203C41.1756 7.09066 41.2178 7.51829 41.1357 7.93086C41.0536 8.34343 40.8511 8.72239 40.5536 9.01984C40.2562 9.31728 39.8772 9.51984 39.4646 9.60191C39.0521 9.68397 38.6244 9.64185 38.2358 9.48088C37.8472 9.3199 37.515 9.0473 37.2813 8.69754C37.0476 8.34779 36.9229 7.93658 36.9229 7.51593C36.9275 6.95487 37.1536 6.41835 37.5519 6.02324C37.9503 5.62813 38.4886 5.40644 39.0497 5.40645V5.38909Z" fill="#441B98"/>
<path d="M13.3454 23.2199H10.6109C10.0644 23.2222 9.54112 23.4409 9.15553 23.8281C8.76994 24.2153 8.55346 24.7395 8.55347 25.286V28.0205C8.55347 28.5661 8.77023 29.0894 9.15606 29.4753C9.5419 29.8611 10.0652 30.0779 10.6109 30.0779H13.3454C13.8918 30.0779 14.416 29.8614 14.8032 29.4758C15.1905 29.0902 15.4091 28.5669 15.4114 28.0205V25.286C15.4092 24.7387 15.1908 24.2145 14.8038 23.8275C14.4168 23.4406 13.8926 23.2222 13.3454 23.2199ZM14.3003 28.0205C14.3003 28.2737 14.1997 28.5166 14.0206 28.6957C13.8415 28.8748 13.5986 28.9754 13.3454 28.9754H10.6109C10.3576 28.9754 10.1147 28.8748 9.93564 28.6957C9.75656 28.5166 9.65595 28.2737 9.65595 28.0205V25.286C9.65595 25.0327 9.75656 24.7898 9.93564 24.6107C10.1147 24.4317 10.3576 24.331 10.6109 24.331H13.3454C13.4708 24.331 13.5949 24.3557 13.7108 24.4037C13.8267 24.4517 13.9319 24.5221 14.0206 24.6107C14.1093 24.6994 14.1796 24.8047 14.2276 24.9205C14.2756 25.0364 14.3003 25.1606 14.3003 25.286V28.0205Z" fill="#441B98"/>
<path d="M31.6275 30.0779H34.3707C34.6424 30.0802 34.9118 30.0286 35.1634 29.9263C35.415 29.8239 35.6439 29.6727 35.8367 29.4814C36.0296 29.2902 36.1827 29.0626 36.2872 28.8118C36.3917 28.5611 36.4455 28.2921 36.4455 28.0205V25.286C36.4455 24.7395 36.229 24.2153 35.8434 23.8281C35.4578 23.4409 34.9345 23.2222 34.3881 23.2199H31.6275C31.0811 23.2222 30.5578 23.4409 30.1722 23.8281C29.7866 24.2153 29.5701 24.7395 29.5701 25.286V28.0205C29.5701 28.2906 29.6233 28.5582 29.7267 28.8078C29.8301 29.0574 29.9817 29.2842 30.1727 29.4753C30.3638 29.6663 30.5906 29.8179 30.8402 29.9213C31.0898 30.0246 31.3573 30.0779 31.6275 30.0779ZM30.6726 25.286C30.6726 25.0327 30.7732 24.7898 30.9523 24.6107C31.1314 24.4317 31.3743 24.331 31.6275 24.331H34.3707C34.624 24.331 34.8669 24.4317 35.0459 24.6107C35.225 24.7898 35.3256 25.0327 35.3256 25.286V28.0205C35.3256 28.2737 35.225 28.5166 35.0459 28.6957C34.8669 28.8748 34.624 28.9754 34.3707 28.9754H31.6275C31.3743 28.9754 31.1314 28.8748 30.9523 28.6957C30.7732 28.5166 30.6726 28.2737 30.6726 28.0205V25.286Z" fill="#441B98"/>
</svg>
